<?xml version="1.0" standalone="no"?>
<!DOCTYPE svg PUBLIC "-//W3C//DTD SVG 20010904//EN"
 "http://www.w3.org/TR/2001/REC-SVG-20010904/DTD/svg10.dtd">
<svg version="1.0" xmlns="http://www.w3.org/2000/svg"
 width="512.000000pt" height="512.000000pt" viewBox="0 0 512.000000 512.000000"
 preserveAspectRatio="xMidYMid meet">
<metadata>
Created by potrace 1.11, written by Peter Selinger 2001-2013
</metadata>
<g transform="translate(0.000000,512.000000) scale(0.100000,-0.100000)"
fill="#000000" stroke="none">
<path d="M1007 4794 c-1 -1 -22 -4 -47 -7 -97 -12 -179 -67 -221 -149 -27 -51
-24 91 -34 -1783 -10 -1861 -9 -1821 -21 -1836 -7 -8 -10 -24 -8 -37 5 -28 50
-118 64 -127 7 -4 8 -33 4 -83 -13 -144 -7 -239 17 -290 13 -26 35 -58 49 -72
25 -24 32 -25 121 -24 51 1 299 5 549 8 250 4 586 9 745 11 160 3 436 7 615
10 179 2 523 7 765 10 549 8 592 10 688 30 135 28 204 73 249 159 11 22 27 46
34 54 8 7 15 19 15 25 3 28 12 953 25 2577 3 443 7 893 8 1000 1 173 -1 199
-18 233 -16 33 -64 80 -84 83 -4 0 -14 4 -22 7 -42 18 -117 26 -232 24 l-127
-2 -23 49 c-24 52 -75 94 -143 117 -33 11 -302 13 -1503 14 -805 0 -1464 -1
-1465 -1z"/>
</g>
</svg>
